<?xml version="1.0" encoding="UTF-8" standalone="no"?>
<!DOCTYPE svg PUBLIC "-//W3C//DTD SVG 1.0//EN" "http://www.w3.org/TR/2001/PR-SVG-20010719/DTD/svg10.dtd">
<svg width="17cm" height="17cm" viewBox="158 78 323 323" xmlns="http://www.w3.org/2000/svg" xmlns:xlink="http://www.w3.org/1999/xlink">
  <rect style="fill: none; fill-opacity:0; stroke-width: 2; stroke: #000000" x="160" y="80" width="320" height="320"/>
  <line style="fill: none; fill-opacity:0; stroke-width: 2; stroke: #000000" x1="480" y1="240" x2="160" y2="240"/>
  <line style="fill: none; fill-opacity:0; stroke-width: 2; stroke: #000000" x1="320" y1="400" x2="320" y2="80"/>
  <line style="fill: none; fill-opacity:0; stroke-width: 1; stroke: #000000" x1="240" y1="80" x2="240" y2="400"/>
  <line style="fill: none; fill-opacity:0; stroke-width: 1; stroke: #000000" x1="160" y1="320" x2="480" y2="320"/>
  <line style="fill: none; fill-opacity:0; stroke-width: 1; stroke: #000000" x1="400" y1="400" x2="400" y2="80"/>
  <line style="fill: none; fill-opacity:0; stroke-width: 1; stroke: #000000" x1="480" y1="160" x2="160" y2="160"/>
  <g>
    <polyline style="fill: none; fill-opacity:0; stroke-width: 2; stroke: #a52a2a" points="250,170 390,170 390,310 256.736,310 "/>
    <polygon style="fill: #a52a2a" points="252.236,310 258.236,307 256.736,310 258.236,313 "/>
    <polygon style="fill: none; fill-opacity:0; stroke-width: 2; stroke: #a52a2a" points="252.236,310 258.236,307 256.736,310 258.236,313 "/>
  </g>
  <g>
    <polyline style="fill: none; fill-opacity:0; stroke-width: 2; stroke: #1e90ff" points="200,120 280,120 280,200 206.736,200 "/>
    <polygon style="fill: #1e90ff" points="202.236,200 208.236,197 206.736,200 208.236,203 "/>
    <polygon style="fill: none; fill-opacity:0; stroke-width: 2; stroke: #1e90ff" points="202.236,200 208.236,197 206.736,200 208.236,203 "/>
  </g>
  <g>
    <polyline style="fill: none; fill-opacity:0; stroke-width: 2; stroke: #1e90ff" points="440,120 360,120 360,200 433.264,200 "/>
    <polygon style="fill: #1e90ff" points="437.764,200 431.764,203 433.264,200 431.764,197 "/>
    <polygon style="fill: none; fill-opacity:0; stroke-width: 2; stroke: #1e90ff" points="437.764,200 431.764,203 433.264,200 431.764,197 "/>
  </g>
  <g>
    <polyline style="fill: none; fill-opacity:0; stroke-width: 2; stroke: #1e90ff" points="440,360 360,360 360,280 433.264,280 "/>
    <polygon style="fill: #1e90ff" points="437.764,280 431.764,283 433.264,280 431.764,277 "/>
    <polygon style="fill: none; fill-opacity:0; stroke-width: 2; stroke: #1e90ff" points="437.764,280 431.764,283 433.264,280 431.764,277 "/>
  </g>
  <g>
    <polyline style="fill: none; fill-opacity:0; stroke-width: 2; stroke: #1e90ff" points="200,360 280,360 280,280 206.736,280 "/>
    <polygon style="fill: #1e90ff" points="202.236,280 208.236,277 206.736,280 208.236,283 "/>
    <polygon style="fill: none; fill-opacity:0; stroke-width: 2; stroke: #1e90ff" points="202.236,280 208.236,277 206.736,280 208.236,283 "/>
  </g>
  <g>
    <polyline style="fill: none; fill-opacity:0; stroke-width: 2; stroke: #000000" points="180,100 220,100 220,140 186.736,140 "/>
    <polygon style="fill: #000000" points="182.236,140 188.236,137 186.736,140 188.236,143 "/>
    <polygon style="fill: none; fill-opacity:0; stroke-width: 2; stroke: #000000" points="182.236,140 188.236,137 186.736,140 188.236,143 "/>
  </g>
  <g>
    <polyline style="fill: none; fill-opacity:0; stroke-width: 2; stroke: #000000" points="300,100 260,100 260,140 293.264,140 "/>
    <polygon style="fill: #000000" points="297.764,140 291.764,143 293.264,140 291.764,137 "/>
    <polygon style="fill: none; fill-opacity:0; stroke-width: 2; stroke: #000000" points="297.764,140 291.764,143 293.264,140 291.764,137 "/>
  </g>
  <g>
    <polyline style="fill: none; fill-opacity:0; stroke-width: 2; stroke: #000000" points="180,220 220,220 220,180 186.736,180 "/>
    <polygon style="fill: #000000" points="182.236,180 188.236,177 186.736,180 188.236,183 "/>
    <polygon style="fill: none; fill-opacity:0; stroke-width: 2; stroke: #000000" points="182.236,180 188.236,177 186.736,180 188.236,183 "/>
  </g>
  <g>
    <polyline style="fill: none; fill-opacity:0; stroke-width: 2; stroke: #000000" points="300,220 260,220 260,180 293.264,180 "/>
    <polygon style="fill: #000000" points="297.764,180 291.764,183 293.264,180 291.764,177 "/>
    <polygon style="fill: none; fill-opacity:0; stroke-width: 2; stroke: #000000" points="297.764,180 291.764,183 293.264,180 291.764,177 "/>
  </g>
  <g>
    <polyline style="fill: none; fill-opacity:0; stroke-width: 2; stroke: #000000" points="340,100 380,100 380,140 346.736,140 "/>
    <polygon style="fill: #000000" points="342.236,140 348.236,137 346.736,140 348.236,143 "/>
    <polygon style="fill: none; fill-opacity:0; stroke-width: 2; stroke: #000000" points="342.236,140 348.236,137 346.736,140 348.236,143 "/>
  </g>
  <g>
    <polyline style="fill: none; fill-opacity:0; stroke-width: 2; stroke: #000000" points="460,100 420,100 420,140 453.264,140 "/>
    <polygon style="fill: #000000" points="457.764,140 451.764,143 453.264,140 451.764,137 "/>
    <polygon style="fill: none; fill-opacity:0; stroke-width: 2; stroke: #000000" points="457.764,140 451.764,143 453.264,140 451.764,137 "/>
  </g>
  <g>
    <polyline style="fill: none; fill-opacity:0; stroke-width: 2; stroke: #000000" points="340,220 380,220 380,180 346.736,180 "/>
    <polygon style="fill: #000000" points="342.236,180 348.236,177 346.736,180 348.236,183 "/>
    <polygon style="fill: none; fill-opacity:0; stroke-width: 2; stroke: #000000" points="342.236,180 348.236,177 346.736,180 348.236,183 "/>
  </g>
  <g>
    <polyline style="fill: none; fill-opacity:0; stroke-width: 2; stroke: #000000" points="460,220 420,220 420,180 453.264,180 "/>
    <polygon style="fill: #000000" points="457.764,180 451.764,183 453.264,180 451.764,177 "/>
    <polygon style="fill: none; fill-opacity:0; stroke-width: 2; stroke: #000000" points="457.764,180 451.764,183 453.264,180 451.764,177 "/>
  </g>
  <g>
    <polyline style="fill: none; fill-opacity:0; stroke-width: 2; stroke: #000000" points="180,260 220,260 220,300 186.736,300 "/>
    <polygon style="fill: #000000" points="182.236,300 188.236,297 186.736,300 188.236,303 "/>
    <polygon style="fill: none; fill-opacity:0; stroke-width: 2; stroke: #000000" points="182.236,300 188.236,297 186.736,300 188.236,303 "/>
  </g>
  <g>
    <polyline style="fill: none; fill-opacity:0; stroke-width: 2; stroke: #000000" points="300,260 260,260 260,300 293.264,300 "/>
    <polygon style="fill: #000000" points="297.764,300 291.764,303 293.264,300 291.764,297 "/>
    <polygon style="fill: none; fill-opacity:0; stroke-width: 2; stroke: #000000" points="297.764,300 291.764,303 293.264,300 291.764,297 "/>
  </g>
  <g>
    <polyline style="fill: none; fill-opacity:0; stroke-width: 2; stroke: #000000" points="180,380 220,380 220,340 186.736,340 "/>
    <polygon style="fill: #000000" points="182.236,340 188.236,337 186.736,340 188.236,343 "/>
    <polygon style="fill: none; fill-opacity:0; stroke-width: 2; stroke: #000000" points="182.236,340 188.236,337 186.736,340 188.236,343 "/>
  </g>
  <g>
    <polyline style="fill: none; fill-opacity:0; stroke-width: 2; stroke: #000000" points="300,380 260,380 260,340 293.264,340 "/>
    <polygon style="fill: #000000" points="297.764,340 291.764,343 293.264,340 291.764,337 "/>
    <polygon style="fill: none; fill-opacity:0; stroke-width: 2; stroke: #000000" points="297.764,340 291.764,343 293.264,340 291.764,337 "/>
  </g>
  <g>
    <polyline style="fill: none; fill-opacity:0; stroke-width: 2; stroke: #000000" points="340,260 380,260 380,300 346.736,300 "/>
    <polygon style="fill: #000000" points="342.236,300 348.236,297 346.736,300 348.236,303 "/>
    <polygon style="fill: none; fill-opacity:0; stroke-width: 2; stroke: #000000" points="342.236,300 348.236,297 346.736,300 348.236,303 "/>
  </g>
  <g>
    <polyline style="fill: none; fill-opacity:0; stroke-width: 2; stroke: #000000" points="460,260 420,260 420,300 453.264,300 "/>
    <polygon style="fill: #000000" points="457.764,300 451.764,303 453.264,300 451.764,297 "/>
    <polygon style="fill: none; fill-opacity:0; stroke-width: 2; stroke: #000000" points="457.764,300 451.764,303 453.264,300 451.764,297 "/>
  </g>
  <g>
    <polyline style="fill: none; fill-opacity:0; stroke-width: 2; stroke: #000000" points="340,380 380,380 380,340 346.736,340 "/>
    <polygon style="fill: #000000" points="342.236,340 348.236,337 346.736,340 348.236,343 "/>
    <polygon style="fill: none; fill-opacity:0; stroke-width: 2; stroke: #000000" points="342.236,340 348.236,337 346.736,340 348.236,343 "/>
  </g>
  <g>
    <polyline style="fill: none; fill-opacity:0; stroke-width: 2; stroke: #000000" points="460,380 420,380 420,340 453.264,340 "/>
    <polygon style="fill: #000000" points="457.764,340 451.764,343 453.264,340 451.764,337 "/>
    <polygon style="fill: none; fill-opacity:0; stroke-width: 2; stroke: #000000" points="457.764,340 451.764,343 453.264,340 451.764,337 "/>
  </g>
</svg>
