<?xml version="1.0" encoding="UTF-8" standalone="no"?>
<!DOCTYPE svg PUBLIC "-//W3C//DTD SVG 1.0//EN" "http://www.w3.org/TR/2001/PR-SVG-20010719/DTD/svg10.dtd">
<svg width="20cm" height="20cm" viewBox="125 47 392 385" xmlns="http://www.w3.org/2000/svg" xmlns:xlink="http://www.w3.org/1999/xlink">
  <rect style="fill: none; fill-opacity:0; stroke-width: 2; stroke: #000000" x="160" y="80" width="320" height="320"/>
  <line style="fill: none; fill-opacity:0; stroke-width: 2; stroke: #000000" x1="480" y1="240" x2="160" y2="240"/>
  <line style="fill: none; fill-opacity:0; stroke-width: 2; stroke: #000000" x1="320" y1="400" x2="320" y2="80"/>
  <g>
    <line style="fill: none; fill-opacity:0; stroke-width: 1; stroke: #000000" x1="240" y1="66" x2="240" y2="414"/>
    <line style="fill: none; fill-opacity:0; stroke-width: 1; stroke: #000000" x1="240" y1="50" x2="240" y2="53.2"/>
    <line style="fill: none; fill-opacity:0; stroke-width: 1; stroke: #000000" x1="240" y1="55.3333" x2="240" y2="58.5333"/>
    <line style="fill: none; fill-opacity:0; stroke-width: 1; stroke: #000000" x1="240" y1="60.6667" x2="240" y2="63.8667"/>
    <line style="fill: none; fill-opacity:0; stroke-width: 1; stroke: #000000" x1="240" y1="430" x2="240" y2="426.8"/>
    <line style="fill: none; fill-opacity:0; stroke-width: 1; stroke: #000000" x1="240" y1="424.667" x2="240" y2="421.467"/>
    <line style="fill: none; fill-opacity:0; stroke-width: 1; stroke: #000000" x1="240" y1="419.333" x2="240" y2="416.133"/>
  </g>
  <g>
    <line style="fill: none; fill-opacity:0; stroke-width: 1; stroke: #000000" x1="150" y1="320" x2="494" y2="320"/>
    <line style="fill: none; fill-opacity:0; stroke-width: 1; stroke: #000000" x1="130" y1="320" x2="134" y2="320"/>
    <line style="fill: none; fill-opacity:0; stroke-width: 1; stroke: #000000" x1="136.667" y1="320" x2="140.667" y2="320"/>
    <line style="fill: none; fill-opacity:0; stroke-width: 1; stroke: #000000" x1="143.333" y1="320" x2="147.333" y2="320"/>
    <line style="fill: none; fill-opacity:0; stroke-width: 1; stroke: #000000" x1="510" y1="320" x2="506.8" y2="320"/>
    <line style="fill: none; fill-opacity:0; stroke-width: 1; stroke: #000000" x1="504.667" y1="320" x2="501.467" y2="320"/>
    <line style="fill: none; fill-opacity:0; stroke-width: 1; stroke: #000000" x1="499.333" y1="320" x2="496.133" y2="320"/>
  </g>
  <g>
    <line style="fill: none; fill-opacity:0; stroke-width: 1; stroke: #000000" x1="400" y1="414" x2="400" y2="66"/>
    <line style="fill: none; fill-opacity:0; stroke-width: 1; stroke: #000000" x1="400" y1="430" x2="400" y2="426.8"/>
    <line style="fill: none; fill-opacity:0; stroke-width: 1; stroke: #000000" x1="400" y1="424.667" x2="400" y2="421.467"/>
    <line style="fill: none; fill-opacity:0; stroke-width: 1; stroke: #000000" x1="400" y1="419.333" x2="400" y2="416.133"/>
    <line style="fill: none; fill-opacity:0; stroke-width: 1; stroke: #000000" x1="400" y1="50" x2="400" y2="53.2"/>
    <line style="fill: none; fill-opacity:0; stroke-width: 1; stroke: #000000" x1="400" y1="55.3333" x2="400" y2="58.5333"/>
    <line style="fill: none; fill-opacity:0; stroke-width: 1; stroke: #000000" x1="400" y1="60.6667" x2="400" y2="63.8667"/>
  </g>
  <g>
    <line style="fill: none; fill-opacity:0; stroke-width: 1; stroke: #000000" x1="490" y1="160" x2="146" y2="160"/>
    <line style="fill: none; fill-opacity:0; stroke-width: 1; stroke: #000000" x1="510" y1="160" x2="506" y2="160"/>
    <line style="fill: none; fill-opacity:0; stroke-width: 1; stroke: #000000" x1="503.333" y1="160" x2="499.333" y2="160"/>
    <line style="fill: none; fill-opacity:0; stroke-width: 1; stroke: #000000" x1="496.667" y1="160" x2="492.667" y2="160"/>
    <line style="fill: none; fill-opacity:0; stroke-width: 1; stroke: #000000" x1="130" y1="160" x2="133.2" y2="160"/>
    <line style="fill: none; fill-opacity:0; stroke-width: 1; stroke: #000000" x1="135.333" y1="160" x2="138.533" y2="160"/>
    <line style="fill: none; fill-opacity:0; stroke-width: 1; stroke: #000000" x1="140.667" y1="160" x2="143.867" y2="160"/>
  </g>
  <text style="fill: #a52a2a;text-anchor:start;font-size:12.8;font-family:CM Typewriter;font-style:normal;font-weight:normal" x="170" y="100">
    <tspan x="170" y="100">0000</tspan>
  </text>
  <text style="fill: #a52a2a;text-anchor:start;font-size:12.8;font-family:CM Typewriter;font-style:normal;font-weight:normal" x="330" y="100">
    <tspan x="330" y="100">0101</tspan>
  </text>
  <text style="fill: #a52a2a;text-anchor:start;font-size:12.8;font-family:CM Typewriter;font-style:normal;font-weight:normal" x="410" y="100">
    <tspan x="410" y="100">0100</tspan>
  </text>
  <text style="fill: #a52a2a;text-anchor:start;font-size:12.8;font-family:CM Typewriter;font-style:normal;font-weight:normal" x="170" y="180">
    <tspan x="170" y="180">0010</tspan>
  </text>
  <text style="fill: #a52a2a;text-anchor:start;font-size:12.8;font-family:CM Typewriter;font-style:normal;font-weight:normal" x="250" y="180">
    <tspan x="250" y="180">0011</tspan>
  </text>
  <text style="fill: #a52a2a;text-anchor:start;font-size:12.8;font-family:CM Typewriter;font-style:normal;font-weight:normal" x="330" y="180">
    <tspan x="330" y="180">0111</tspan>
  </text>
  <text style="fill: #a52a2a;text-anchor:start;font-size:12.8;font-family:CM Typewriter;font-style:normal;font-weight:normal" x="410" y="180">
    <tspan x="410" y="180">0101</tspan>
  </text>
  <text style="fill: #a52a2a;text-anchor:start;font-size:12.8;font-family:CM Typewriter;font-style:normal;font-weight:normal" x="250" y="100">
    <tspan x="250" y="100">0001</tspan>
  </text>
  <text style="fill: #a52a2a;text-anchor:start;font-size:12.8;font-family:CM Typewriter;font-style:normal;font-weight:normal" x="170" y="260">
    <tspan x="170" y="260">1010</tspan>
  </text>
  <text style="fill: #a52a2a;text-anchor:start;font-size:12.8;font-family:CM Typewriter;font-style:normal;font-weight:normal" x="330" y="260">
    <tspan x="330" y="260">1111</tspan>
  </text>
  <text style="fill: #a52a2a;text-anchor:start;font-size:12.8;font-family:CM Typewriter;font-style:normal;font-weight:normal" x="410" y="260">
    <tspan x="410" y="260">1110</tspan>
  </text>
  <text style="fill: #a52a2a;text-anchor:start;font-size:12.8;font-family:CM Typewriter;font-style:normal;font-weight:normal" x="170" y="340">
    <tspan x="170" y="340">1000</tspan>
  </text>
  <text style="fill: #a52a2a;text-anchor:start;font-size:12.8;font-family:CM Typewriter;font-style:normal;font-weight:normal" x="250" y="340">
    <tspan x="250" y="340">1001</tspan>
  </text>
  <text style="fill: #a52a2a;text-anchor:start;font-size:12.8;font-family:CM Typewriter;font-style:normal;font-weight:normal" x="330" y="340">
    <tspan x="330" y="340">1101</tspan>
  </text>
  <text style="fill: #a52a2a;text-anchor:start;font-size:12.8;font-family:CM Typewriter;font-style:normal;font-weight:normal" x="410" y="340">
    <tspan x="410" y="340">1100</tspan>
  </text>
  <text style="fill: #a52a2a;text-anchor:start;font-size:12.8;font-family:CM Typewriter;font-style:normal;font-weight:normal" x="250" y="260">
    <tspan x="250" y="260">1011</tspan>
  </text>
  <g>
    <line style="fill: none; fill-opacity:0; stroke-width: 2; stroke: #000000" x1="160" y1="66" x2="160" y2="80"/>
    <line style="fill: none; fill-opacity:0; stroke-width: 2; stroke: #000000" x1="160" y1="50" x2="160" y2="53.2"/>
    <line style="fill: none; fill-opacity:0; stroke-width: 2; stroke: #000000" x1="160" y1="55.3333" x2="160" y2="58.5333"/>
    <line style="fill: none; fill-opacity:0; stroke-width: 2; stroke: #000000" x1="160" y1="60.6667" x2="160" y2="63.8667"/>
  </g>
  <g>
    <line style="fill: none; fill-opacity:0; stroke-width: 2; stroke: #000000" x1="480" y1="66" x2="480" y2="80"/>
    <line style="fill: none; fill-opacity:0; stroke-width: 2; stroke: #000000" x1="480" y1="50" x2="480" y2="53.2"/>
    <line style="fill: none; fill-opacity:0; stroke-width: 2; stroke: #000000" x1="480" y1="55.3333" x2="480" y2="58.5333"/>
    <line style="fill: none; fill-opacity:0; stroke-width: 2; stroke: #000000" x1="480" y1="60.6667" x2="480" y2="63.8667"/>
  </g>
  <g>
    <line style="fill: none; fill-opacity:0; stroke-width: 2; stroke: #000000" x1="320" y1="66" x2="320" y2="80"/>
    <line style="fill: none; fill-opacity:0; stroke-width: 2; stroke: #000000" x1="320" y1="50" x2="320" y2="53.2"/>
    <line style="fill: none; fill-opacity:0; stroke-width: 2; stroke: #000000" x1="320" y1="55.3333" x2="320" y2="58.5333"/>
    <line style="fill: none; fill-opacity:0; stroke-width: 2; stroke: #000000" x1="320" y1="60.6667" x2="320" y2="63.8667"/>
  </g>
  <g>
    <line style="fill: none; fill-opacity:0; stroke-width: 2; stroke: #000000" x1="160" y1="400" x2="160" y2="414"/>
    <line style="fill: none; fill-opacity:0; stroke-width: 2; stroke: #000000" x1="160" y1="430" x2="160" y2="426.8"/>
    <line style="fill: none; fill-opacity:0; stroke-width: 2; stroke: #000000" x1="160" y1="424.667" x2="160" y2="421.467"/>
    <line style="fill: none; fill-opacity:0; stroke-width: 2; stroke: #000000" x1="160" y1="419.333" x2="160" y2="416.133"/>
  </g>
  <g>
    <line style="fill: none; fill-opacity:0; stroke-width: 2; stroke: #000000" x1="320" y1="400" x2="320" y2="414"/>
    <line style="fill: none; fill-opacity:0; stroke-width: 2; stroke: #000000" x1="320" y1="430" x2="320" y2="426.8"/>
    <line style="fill: none; fill-opacity:0; stroke-width: 2; stroke: #000000" x1="320" y1="424.667" x2="320" y2="421.467"/>
    <line style="fill: none; fill-opacity:0; stroke-width: 2; stroke: #000000" x1="320" y1="419.333" x2="320" y2="416.133"/>
  </g>
  <g>
    <line style="fill: none; fill-opacity:0; stroke-width: 2; stroke: #000000" x1="480" y1="400" x2="480" y2="414"/>
    <line style="fill: none; fill-opacity:0; stroke-width: 2; stroke: #000000" x1="480" y1="430" x2="480" y2="426.8"/>
    <line style="fill: none; fill-opacity:0; stroke-width: 2; stroke: #000000" x1="480" y1="424.667" x2="480" y2="421.467"/>
    <line style="fill: none; fill-opacity:0; stroke-width: 2; stroke: #000000" x1="480" y1="419.333" x2="480" y2="416.133"/>
  </g>
  <text style="fill: #a52a2a;text-anchor:start;font-size:12.8;font-family:CM Typewriter;font-style:normal;font-weight:normal" x="170" y="70">
    <tspan x="170" y="70">..00</tspan>
  </text>
  <text style="fill: #a52a2a;text-anchor:start;font-size:12.8;font-family:CM Typewriter;font-style:normal;font-weight:normal" x="250" y="70">
    <tspan x="250" y="70">..01</tspan>
  </text>
  <text style="fill: #a52a2a;text-anchor:start;font-size:12.8;font-family:CM Typewriter;font-style:normal;font-weight:normal" x="330" y="70">
    <tspan x="330" y="70">..00</tspan>
  </text>
  <text style="fill: #a52a2a;text-anchor:start;font-size:12.8;font-family:CM Typewriter;font-style:normal;font-weight:normal" x="410" y="70">
    <tspan x="410" y="70">..01</tspan>
  </text>
  <text style="fill: #a52a2a;text-anchor:start;font-size:12.8;font-family:CM Typewriter;font-style:normal;font-weight:normal" x="170" y="420">
    <tspan x="170" y="420">..00</tspan>
  </text>
  <text style="fill: #a52a2a;text-anchor:start;font-size:12.8;font-family:CM Typewriter;font-style:normal;font-weight:normal" x="250" y="420">
    <tspan x="250" y="420">..01</tspan>
  </text>
  <text style="fill: #a52a2a;text-anchor:start;font-size:12.8;font-family:CM Typewriter;font-style:normal;font-weight:normal" x="330" y="420">
    <tspan x="330" y="420">..00</tspan>
  </text>
  <text style="fill: #a52a2a;text-anchor:start;font-size:12.8;font-family:CM Typewriter;font-style:normal;font-weight:normal" x="410" y="420">
    <tspan x="410" y="420">..01</tspan>
  </text>
  <g>
    <line style="fill: none; fill-opacity:0; stroke-width: 2; stroke: #000000" x1="146" y1="80" x2="160" y2="80"/>
    <line style="fill: none; fill-opacity:0; stroke-width: 2; stroke: #000000" x1="130" y1="80" x2="133.2" y2="80"/>
    <line style="fill: none; fill-opacity:0; stroke-width: 2; stroke: #000000" x1="135.333" y1="80" x2="138.533" y2="80"/>
    <line style="fill: none; fill-opacity:0; stroke-width: 2; stroke: #000000" x1="140.667" y1="80" x2="143.867" y2="80"/>
  </g>
  <g>
    <line style="fill: none; fill-opacity:0; stroke-width: 2; stroke: #000000" x1="146" y1="240" x2="160" y2="240"/>
    <line style="fill: none; fill-opacity:0; stroke-width: 2; stroke: #000000" x1="130" y1="240" x2="133.2" y2="240"/>
    <line style="fill: none; fill-opacity:0; stroke-width: 2; stroke: #000000" x1="135.333" y1="240" x2="138.533" y2="240"/>
    <line style="fill: none; fill-opacity:0; stroke-width: 2; stroke: #000000" x1="140.667" y1="240" x2="143.867" y2="240"/>
  </g>
  <g>
    <line style="fill: none; fill-opacity:0; stroke-width: 2; stroke: #000000" x1="146" y1="400" x2="160" y2="400"/>
    <line style="fill: none; fill-opacity:0; stroke-width: 2; stroke: #000000" x1="130" y1="400" x2="133.2" y2="400"/>
    <line style="fill: none; fill-opacity:0; stroke-width: 2; stroke: #000000" x1="135.333" y1="400" x2="138.533" y2="400"/>
    <line style="fill: none; fill-opacity:0; stroke-width: 2; stroke: #000000" x1="140.667" y1="400" x2="143.867" y2="400"/>
  </g>
  <text style="fill: #a52a2a;text-anchor:start;font-size:12.8;font-family:CM Typewriter;font-style:normal;font-weight:normal" x="125.664" y="100">
    <tspan x="125.664" y="100">..00</tspan>
  </text>
  <text style="fill: #a52a2a;text-anchor:start;font-size:12.8;font-family:CM Typewriter;font-style:normal;font-weight:normal" x="125.664" y="180">
    <tspan x="125.664" y="180">..10</tspan>
  </text>
  <text style="fill: #a52a2a;text-anchor:start;font-size:12.8;font-family:CM Typewriter;font-style:normal;font-weight:normal" x="125.664" y="260">
    <tspan x="125.664" y="260">..10</tspan>
  </text>
  <text style="fill: #a52a2a;text-anchor:start;font-size:12.8;font-family:CM Typewriter;font-style:normal;font-weight:normal" x="125.664" y="340">
    <tspan x="125.664" y="340">..00</tspan>
  </text>
  <g>
    <line style="fill: none; fill-opacity:0; stroke-width: 2; stroke: #000000" x1="480" y1="80" x2="494" y2="80"/>
    <line style="fill: none; fill-opacity:0; stroke-width: 2; stroke: #000000" x1="510" y1="80" x2="506.8" y2="80"/>
    <line style="fill: none; fill-opacity:0; stroke-width: 2; stroke: #000000" x1="504.667" y1="80" x2="501.467" y2="80"/>
    <line style="fill: none; fill-opacity:0; stroke-width: 2; stroke: #000000" x1="499.333" y1="80" x2="496.133" y2="80"/>
  </g>
  <g>
    <line style="fill: none; fill-opacity:0; stroke-width: 2; stroke: #000000" x1="480" y1="240" x2="494" y2="240"/>
    <line style="fill: none; fill-opacity:0; stroke-width: 2; stroke: #000000" x1="510" y1="240" x2="506.8" y2="240"/>
    <line style="fill: none; fill-opacity:0; stroke-width: 2; stroke: #000000" x1="504.667" y1="240" x2="501.467" y2="240"/>
    <line style="fill: none; fill-opacity:0; stroke-width: 2; stroke: #000000" x1="499.333" y1="240" x2="496.133" y2="240"/>
  </g>
  <g>
    <line style="fill: none; fill-opacity:0; stroke-width: 2; stroke: #000000" x1="480" y1="400" x2="494" y2="400"/>
    <line style="fill: none; fill-opacity:0; stroke-width: 2; stroke: #000000" x1="510" y1="400" x2="506.8" y2="400"/>
    <line style="fill: none; fill-opacity:0; stroke-width: 2; stroke: #000000" x1="504.667" y1="400" x2="501.467" y2="400"/>
    <line style="fill: none; fill-opacity:0; stroke-width: 2; stroke: #000000" x1="499.333" y1="400" x2="496.133" y2="400"/>
  </g>
  <text style="fill: #a52a2a;text-anchor:start;font-size:12.8;font-family:CM Typewriter;font-style:normal;font-weight:normal" x="490" y="100">
    <tspan x="490" y="100">..00</tspan>
  </text>
  <text style="fill: #a52a2a;text-anchor:start;font-size:12.8;font-family:CM Typewriter;font-style:normal;font-weight:normal" x="490" y="180">
    <tspan x="490" y="180">..10</tspan>
  </text>
  <text style="fill: #a52a2a;text-anchor:start;font-size:12.8;font-family:CM Typewriter;font-style:normal;font-weight:normal" x="490" y="260">
    <tspan x="490" y="260">..10</tspan>
  </text>
  <text style="fill: #a52a2a;text-anchor:start;font-size:12.8;font-family:CM Typewriter;font-style:normal;font-weight:normal" x="490" y="340">
    <tspan x="490" y="340">..00</tspan>
  </text>
</svg>
