<?xml version="1.0" encoding="UTF-8" standalone="no"?>
<!DOCTYPE svg PUBLIC "-//W3C//DTD SVG 1.0//EN" "http://www.w3.org/TR/2001/PR-SVG-20010719/DTD/svg10.dtd">
<svg width="12cm" height="12cm" viewBox="29 -3368 230 232" xmlns="http://www.w3.org/2000/svg" xmlns:xlink="http://www.w3.org/1999/xlink">
  <text style="fill: #000000;text-anchor:start;font-size:12.8;font-family:sanserif;font-style:normal;font-weight:normal" x="70" y="-3355.4">
    <tspan x="70" y="-3355.4">00</tspan>
  </text>
  <text style="fill: #000000;text-anchor:start;font-size:12.8;font-family:sanserif;font-style:normal;font-weight:normal" x="120" y="-3355.4">
    <tspan x="120" y="-3355.4">01</tspan>
  </text>
  <text style="fill: #000000;text-anchor:start;font-size:12.8;font-family:sanserif;font-style:normal;font-weight:normal" x="170" y="-3355.4">
    <tspan x="170" y="-3355.4">10</tspan>
  </text>
  <text style="fill: #000000;text-anchor:start;font-size:12.8;font-family:sanserif;font-style:normal;font-weight:normal" x="220" y="-3355.4">
    <tspan x="220" y="-3355.4">11</tspan>
  </text>
  <g>
    <polyline style="fill: none; fill-opacity:0; stroke-width: 2; stroke: #000000" points="244.764,-3350 50,-3350 50,-3155.24 "/>
    <polygon style="fill: #000000" points="247.764,-3350 243.764,-3348 244.764,-3350 243.764,-3352 "/>
    <polygon style="fill: none; fill-opacity:0; stroke-width: 2; stroke: #000000" points="247.764,-3350 243.764,-3348 244.764,-3350 243.764,-3352 "/>
    <polygon style="fill: #000000" points="50,-3152.24 48,-3156.24 50,-3155.24 52,-3156.24 "/>
    <polygon style="fill: none; fill-opacity:0; stroke-width: 2; stroke: #000000" points="50,-3152.24 48,-3156.24 50,-3155.24 52,-3156.24 "/>
  </g>
  <text style="fill: #000000;text-anchor:start;font-size:12.8;font-family:sanserif;font-style:normal;font-weight:normal" x="29.197" y="-3320">
    <tspan x="29.197" y="-3320">00</tspan>
  </text>
  <text style="fill: #000000;text-anchor:start;font-size:12.8;font-family:sanserif;font-style:normal;font-weight:normal" x="29.197" y="-3170">
    <tspan x="29.197" y="-3170">11</tspan>
  </text>
  <text style="fill: #000000;text-anchor:start;font-size:12.8;font-family:sanserif;font-style:normal;font-weight:normal" x="29.197" y="-3270">
    <tspan x="29.197" y="-3270">01</tspan>
  </text>
  <text style="fill: #000000;text-anchor:start;font-size:12.8;font-family:sanserif;font-style:normal;font-weight:normal" x="29.197" y="-3220">
    <tspan x="29.197" y="-3220">10</tspan>
  </text>
  <g>
    <ellipse style="fill: #ffffff" cx="75" cy="-3325" rx="5" ry="5"/>
    <ellipse style="fill: none; fill-opacity:0; stroke-width: 2; stroke: #000000" cx="75" cy="-3325" rx="5" ry="5"/>
  </g>
  <g>
    <ellipse style="fill: #ffffff" cx="124.599" cy="-3324.6" rx="5" ry="5"/>
    <ellipse style="fill: none; fill-opacity:0; stroke-width: 2; stroke: #000000" cx="124.599" cy="-3324.6" rx="5" ry="5"/>
  </g>
  <g>
    <ellipse style="fill: #ffffff" cx="175.401" cy="-3324.6" rx="5" ry="5"/>
    <ellipse style="fill: none; fill-opacity:0; stroke-width: 2; stroke: #000000" cx="175.401" cy="-3324.6" rx="5" ry="5"/>
  </g>
  <g>
    <ellipse style="fill: #ffffff" cx="225" cy="-3325" rx="5" ry="5"/>
    <ellipse style="fill: none; fill-opacity:0; stroke-width: 2; stroke: #000000" cx="225" cy="-3325" rx="5" ry="5"/>
  </g>
  <g>
    <ellipse style="fill: #ffffff" cx="75.4014" cy="-3275.4" rx="5" ry="5"/>
    <ellipse style="fill: none; fill-opacity:0; stroke-width: 2; stroke: #000000" cx="75.4014" cy="-3275.4" rx="5" ry="5"/>
  </g>
  <g>
    <ellipse style="fill: #ffffff" cx="125" cy="-3275" rx="5" ry="5"/>
    <ellipse style="fill: none; fill-opacity:0; stroke-width: 2; stroke: #000000" cx="125" cy="-3275" rx="5" ry="5"/>
  </g>
  <g>
    <ellipse style="fill: #ffffff" cx="175.803" cy="-3275" rx="5" ry="5"/>
    <ellipse style="fill: none; fill-opacity:0; stroke-width: 2; stroke: #000000" cx="175.803" cy="-3275" rx="5" ry="5"/>
  </g>
  <g>
    <ellipse style="fill: #ffffff" cx="225.402" cy="-3275.4" rx="5" ry="5"/>
    <ellipse style="fill: none; fill-opacity:0; stroke-width: 2; stroke: #000000" cx="225.402" cy="-3275.4" rx="5" ry="5"/>
  </g>
  <g>
    <ellipse style="fill: #ffffff" cx="75.4014" cy="-3225.4" rx="5" ry="5"/>
    <ellipse style="fill: none; fill-opacity:0; stroke-width: 2; stroke: #000000" cx="75.4014" cy="-3225.4" rx="5" ry="5"/>
  </g>
  <g>
    <ellipse style="fill: #ffffff" cx="125" cy="-3225" rx="5" ry="5"/>
    <ellipse style="fill: none; fill-opacity:0; stroke-width: 2; stroke: #000000" cx="125" cy="-3225" rx="5" ry="5"/>
  </g>
  <g>
    <ellipse style="fill: #ffffff" cx="175.803" cy="-3225" rx="5" ry="5"/>
    <ellipse style="fill: none; fill-opacity:0; stroke-width: 2; stroke: #000000" cx="175.803" cy="-3225" rx="5" ry="5"/>
  </g>
  <g>
    <ellipse style="fill: #ffffff" cx="225.402" cy="-3225.4" rx="5" ry="5"/>
    <ellipse style="fill: none; fill-opacity:0; stroke-width: 2; stroke: #000000" cx="225.402" cy="-3225.4" rx="5" ry="5"/>
  </g>
  <g>
    <ellipse style="fill: #ffffff" cx="75" cy="-3175" rx="5" ry="5"/>
    <ellipse style="fill: none; fill-opacity:0; stroke-width: 2; stroke: #000000" cx="75" cy="-3175" rx="5" ry="5"/>
  </g>
  <g>
    <ellipse style="fill: #ffffff" cx="124.599" cy="-3174.6" rx="5" ry="5"/>
    <ellipse style="fill: none; fill-opacity:0; stroke-width: 2; stroke: #000000" cx="124.599" cy="-3174.6" rx="5" ry="5"/>
  </g>
  <g>
    <ellipse style="fill: #ffffff" cx="175.401" cy="-3174.6" rx="5" ry="5"/>
    <ellipse style="fill: none; fill-opacity:0; stroke-width: 2; stroke: #000000" cx="175.401" cy="-3174.6" rx="5" ry="5"/>
  </g>
  <g>
    <ellipse style="fill: #ffffff" cx="225" cy="-3175" rx="5" ry="5"/>
    <ellipse style="fill: none; fill-opacity:0; stroke-width: 2; stroke: #000000" cx="225" cy="-3175" rx="5" ry="5"/>
  </g>
  <g>
    <line style="fill: none; fill-opacity:0; stroke-width: 2; stroke: #000000" x1="84.9091" y1="-3324.92" x2="109.454" y2="-3324.72"/>
    <polygon style="fill: #000000" points="112.454,-3324.7 108.438,-3322.73 109.454,-3324.72 108.47,-3326.73 "/>
    <polygon style="fill: none; fill-opacity:0; stroke-width: 2; stroke: #000000" points="112.454,-3324.7 108.438,-3322.73 109.454,-3324.72 108.47,-3326.73 "/>
  </g>
  <g>
    <line style="fill: none; fill-opacity:0; stroke-width: 2; stroke: #000000" x1="117.53" y1="-3317.53" x2="86.172" y2="-3286.17"/>
    <polygon style="fill: #000000" points="84.0507,-3284.05 85.4648,-3288.29 86.172,-3286.17 88.2933,-3285.46 "/>
    <polygon style="fill: none; fill-opacity:0; stroke-width: 2; stroke: #000000" points="84.0507,-3284.05 85.4648,-3288.29 86.172,-3286.17 88.2933,-3285.46 "/>
  </g>
  <g>
    <line style="fill: none; fill-opacity:0; stroke-width: 2; stroke: #000000" x1="85.3105" y1="-3275.32" x2="109.855" y2="-3275.12"/>
    <polygon style="fill: #000000" points="112.855,-3275.1 108.839,-3273.13 109.855,-3275.12 108.871,-3277.13 "/>
    <polygon style="fill: none; fill-opacity:0; stroke-width: 2; stroke: #000000" points="112.855,-3275.1 108.839,-3273.13 109.855,-3275.12 108.871,-3277.13 "/>
  </g>
  <g>
    <line style="fill: none; fill-opacity:0; stroke-width: 2; stroke: #000000" x1="132.109" y1="-3282" x2="164.561" y2="-3313.93"/>
    <polygon style="fill: #000000" points="166.699,-3316.04 165.251,-3311.8 164.561,-3313.93 162.445,-3314.66 "/>
    <polygon style="fill: none; fill-opacity:0; stroke-width: 2; stroke: #000000" points="166.699,-3316.04 165.251,-3311.8 164.561,-3313.93 162.445,-3314.66 "/>
  </g>
  <g>
    <line style="fill: none; fill-opacity:0; stroke-width: 2; stroke: #000000" x1="185.31" y1="-3324.68" x2="209.855" y2="-3324.88"/>
    <polygon style="fill: #000000" points="212.855,-3324.9 208.871,-3322.87 209.855,-3324.88 208.839,-3326.87 "/>
    <polygon style="fill: none; fill-opacity:0; stroke-width: 2; stroke: #000000" points="212.855,-3324.9 208.871,-3322.87 209.855,-3324.88 208.839,-3326.87 "/>
  </g>
  <g>
    <line style="fill: none; fill-opacity:0; stroke-width: 2; stroke: #000000" x1="217.985" y1="-3317.87" x2="186.491" y2="-3285.86"/>
    <polygon style="fill: #000000" points="184.387,-3283.72 185.766,-3287.98 186.491,-3285.86 188.618,-3285.17 "/>
    <polygon style="fill: none; fill-opacity:0; stroke-width: 2; stroke: #000000" points="184.387,-3283.72 185.766,-3287.98 186.491,-3285.86 188.618,-3285.17 "/>
  </g>
  <g>
    <line style="fill: none; fill-opacity:0; stroke-width: 2; stroke: #000000" x1="185.712" y1="-3275.08" x2="210.257" y2="-3275.28"/>
    <polygon style="fill: #000000" points="213.257,-3275.3 209.273,-3273.27 210.257,-3275.28 209.241,-3277.27 "/>
    <polygon style="fill: none; fill-opacity:0; stroke-width: 2; stroke: #000000" points="213.257,-3275.3 209.273,-3273.27 210.257,-3275.28 209.241,-3277.27 "/>
  </g>
  <g>
    <line style="fill: none; fill-opacity:0; stroke-width: 2; stroke: #000000" x1="215.922" y1="-3272.24" x2="89.849" y2="-3230.22"/>
    <polygon style="fill: #000000" points="87.0029,-3229.27 90.1652,-3232.43 89.849,-3230.22 91.4301,-3228.63 "/>
    <polygon style="fill: none; fill-opacity:0; stroke-width: 2; stroke: #000000" points="87.0029,-3229.27 90.1652,-3232.43 89.849,-3230.22 91.4301,-3228.63 "/>
  </g>
  <g>
    <line style="fill: none; fill-opacity:0; stroke-width: 2; stroke: #000000" x1="85.3105" y1="-3225.32" x2="109.855" y2="-3225.12"/>
    <polygon style="fill: #000000" points="112.855,-3225.1 108.839,-3223.13 109.855,-3225.12 108.871,-3227.13 "/>
    <polygon style="fill: none; fill-opacity:0; stroke-width: 2; stroke: #000000" points="112.855,-3225.1 108.839,-3223.13 109.855,-3225.12 108.871,-3227.13 "/>
  </g>
  <g>
    <line style="fill: none; fill-opacity:0; stroke-width: 2; stroke: #000000" x1="117.948" y1="-3217.95" x2="85.7545" y2="-3185.75"/>
    <polygon style="fill: #000000" points="83.6332,-3183.63 85.0474,-3187.88 85.7545,-3185.75 87.8758,-3185.05 "/>
    <polygon style="fill: none; fill-opacity:0; stroke-width: 2; stroke: #000000" points="83.6332,-3183.63 85.0474,-3187.88 85.7545,-3185.75 87.8758,-3185.05 "/>
  </g>
  <g>
    <line style="fill: none; fill-opacity:0; stroke-width: 2; stroke: #000000" x1="84.9091" y1="-3174.92" x2="109.454" y2="-3174.72"/>
    <polygon style="fill: #000000" points="112.454,-3174.7 108.438,-3172.73 109.454,-3174.72 108.47,-3176.73 "/>
    <polygon style="fill: none; fill-opacity:0; stroke-width: 2; stroke: #000000" points="112.454,-3174.7 108.438,-3172.73 109.454,-3174.72 108.47,-3176.73 "/>
  </g>
  <g>
    <line style="fill: none; fill-opacity:0; stroke-width: 2; stroke: #000000" x1="131.731" y1="-3181.62" x2="164.939" y2="-3214.31"/>
    <polygon style="fill: #000000" points="167.077,-3216.41 165.629,-3212.18 164.939,-3214.31 162.823,-3215.03 "/>
    <polygon style="fill: none; fill-opacity:0; stroke-width: 2; stroke: #000000" points="167.077,-3216.41 165.629,-3212.18 164.939,-3214.31 162.823,-3215.03 "/>
  </g>
  <g>
    <line style="fill: none; fill-opacity:0; stroke-width: 2; stroke: #000000" x1="185.712" y1="-3225.08" x2="210.257" y2="-3225.28"/>
    <polygon style="fill: #000000" points="213.257,-3225.3 209.273,-3223.27 210.257,-3225.28 209.241,-3227.27 "/>
    <polygon style="fill: none; fill-opacity:0; stroke-width: 2; stroke: #000000" points="213.257,-3225.3 209.273,-3223.27 210.257,-3225.28 209.241,-3227.27 "/>
  </g>
  <g>
    <line style="fill: none; fill-opacity:0; stroke-width: 2; stroke: #000000" x1="218.391" y1="-3218.28" x2="186.086" y2="-3185.46"/>
    <polygon style="fill: #000000" points="183.981,-3183.32 185.362,-3187.57 186.086,-3185.46 188.213,-3184.76 "/>
    <polygon style="fill: none; fill-opacity:0; stroke-width: 2; stroke: #000000" points="183.981,-3183.32 185.362,-3187.57 186.086,-3185.46 188.213,-3184.76 "/>
  </g>
  <g>
    <line style="fill: none; fill-opacity:0; stroke-width: 2; stroke: #000000" x1="185.31" y1="-3174.68" x2="209.855" y2="-3174.88"/>
    <polygon style="fill: #000000" points="212.855,-3174.9 208.871,-3172.87 209.855,-3174.88 208.839,-3176.87 "/>
    <polygon style="fill: none; fill-opacity:0; stroke-width: 2; stroke: #000000" points="212.855,-3174.9 208.871,-3172.87 209.855,-3174.88 208.839,-3176.87 "/>
  </g>
  <text style="fill: #000000;text-anchor:start;font-size:12.8;font-family:sanserif;font-style:normal;font-weight:normal" x="250.802" y="-3345.4">
    <tspan x="250.802" y="-3345.4">x</tspan>
  </text>
  <text style="fill: #000000;text-anchor:start;font-size:12.8;font-family:sanserif;font-style:normal;font-weight:normal" x="45.4014" y="-3139.2">
    <tspan x="45.4014" y="-3139.2">y</tspan>
  </text>
</svg>
