<?xml version="1.0" encoding="UTF-8" standalone="no"?>
<!DOCTYPE svg PUBLIC "-//W3C//DTD SVG 1.0//EN" "http://www.w3.org/TR/2001/PR-SVG-20010719/DTD/svg10.dtd">
<svg width="10cm" height="10cm" viewBox="20 -3360 191 192" xmlns="http://www.w3.org/2000/svg" xmlns:xlink="http://www.w3.org/1999/xlink">
  <g>
    <g>
      <line style="fill: none; fill-opacity:0; stroke-width: 1.2; stroke: #000000" x1="67.9847" y1="-3320.01" x2="87.6277" y2="-3320"/>
      <polygon style="fill: #000000" points="90.6277,-3320 86.6274,-3318 87.6277,-3320 86.6281,-3322 "/>
      <polygon style="fill: none; fill-opacity:0; stroke-width: 1.2; stroke: #000000" points="90.6277,-3320 86.6274,-3318 87.6277,-3320 86.6281,-3322 "/>
    </g>
    <g>
      <line style="fill: none; fill-opacity:0; stroke-width: 1.2; stroke: #000000" x1="94.2875" y1="-3314.35" x2="68.6119" y2="-3288.63"/>
      <polygon style="fill: #000000" points="66.4922,-3286.51 67.9031,-3290.75 68.6119,-3288.63 70.7337,-3287.93 "/>
      <polygon style="fill: none; fill-opacity:0; stroke-width: 1.2; stroke: #000000" points="66.4922,-3286.51 67.9031,-3290.75 68.6119,-3288.63 70.7337,-3287.93 "/>
    </g>
    <g>
      <line style="fill: none; fill-opacity:0; stroke-width: 1.2; stroke: #000000" x1="67.8904" y1="-3279.93" x2="87.5997" y2="-3279.99"/>
      <polygon style="fill: #000000" points="90.5997,-3280 86.6058,-3277.99 87.5997,-3279.99 86.5936,-3281.99 "/>
      <polygon style="fill: none; fill-opacity:0; stroke-width: 1.2; stroke: #000000" points="90.5997,-3280 86.6058,-3277.99 87.5997,-3279.99 86.5936,-3281.99 "/>
    </g>
    <g>
      <line style="fill: none; fill-opacity:0; stroke-width: 1.2; stroke: #000000" x1="147.958" y1="-3320" x2="167.667" y2="-3320"/>
      <polygon style="fill: #000000" points="170.667,-3320 166.667,-3318 167.667,-3320 166.667,-3322 "/>
      <polygon style="fill: none; fill-opacity:0; stroke-width: 1.2; stroke: #000000" points="170.667,-3320 166.667,-3318 167.667,-3320 166.667,-3322 "/>
    </g>
    <g>
      <line style="fill: none; fill-opacity:0; stroke-width: 1.2; stroke: #000000" x1="174.39" y1="-3314.33" x2="148.996" y2="-3288.66"/>
      <polygon style="fill: #000000" points="146.886,-3286.53 148.278,-3290.78 148.996,-3288.66 151.121,-3287.97 "/>
      <polygon style="fill: none; fill-opacity:0; stroke-width: 1.2; stroke: #000000" points="146.886,-3286.53 148.278,-3290.78 148.996,-3288.66 151.121,-3287.97 "/>
    </g>
    <g>
      <line style="fill: none; fill-opacity:0; stroke-width: 1.2; stroke: #000000" x1="172.413" y1="-3277.38" x2="71.7278" y2="-3243.83"/>
      <polygon style="fill: #000000" points="68.8816,-3242.88 72.0443,-3246.05 71.7278,-3243.83 73.3087,-3242.25 "/>
      <polygon style="fill: none; fill-opacity:0; stroke-width: 1.2; stroke: #000000" points="68.8816,-3242.88 72.0443,-3246.05 71.7278,-3243.83 73.3087,-3242.25 "/>
    </g>
    <g>
      <line style="fill: none; fill-opacity:0; stroke-width: 1.2; stroke: #000000" x1="67.9847" y1="-3239.93" x2="87.6277" y2="-3239.93"/>
      <polygon style="fill: #000000" points="90.6277,-3239.93 86.6277,-3237.93 87.6277,-3239.93 86.6277,-3241.93 "/>
      <polygon style="fill: none; fill-opacity:0; stroke-width: 1.2; stroke: #000000" points="90.6277,-3239.93 86.6277,-3237.93 87.6277,-3239.93 86.6277,-3241.93 "/>
    </g>
    <g>
      <line style="fill: none; fill-opacity:0; stroke-width: 1.2; stroke: #000000" x1="94.2907" y1="-3234.28" x2="68.731" y2="-3208.68"/>
      <polygon style="fill: #000000" points="66.6113,-3206.56 68.0223,-3210.8 68.731,-3208.68 70.8529,-3207.98 "/>
      <polygon style="fill: none; fill-opacity:0; stroke-width: 1.2; stroke: #000000" points="66.6113,-3206.56 68.0223,-3210.8 68.731,-3208.68 70.8529,-3207.98 "/>
    </g>
    <g>
      <line style="fill: none; fill-opacity:0; stroke-width: 1.2; stroke: #000000" x1="105.7" y1="-3205.49" x2="131.376" y2="-3231.21"/>
      <polygon style="fill: #000000" points="133.496,-3233.33 132.085,-3229.09 131.376,-3231.21 129.254,-3231.91 "/>
      <polygon style="fill: none; fill-opacity:0; stroke-width: 1.2; stroke: #000000" points="133.496,-3233.33 132.085,-3229.09 131.376,-3231.21 129.254,-3231.91 "/>
    </g>
    <g>
      <line style="fill: none; fill-opacity:0; stroke-width: 1.2; stroke: #000000" x1="148.08" y1="-3239.96" x2="167.789" y2="-3240.02"/>
      <polygon style="fill: #000000" points="170.789,-3240.03 166.795,-3238.01 167.789,-3240.02 166.783,-3242.01 "/>
      <polygon style="fill: none; fill-opacity:0; stroke-width: 1.2; stroke: #000000" points="170.789,-3240.03 166.795,-3238.01 167.789,-3240.02 166.783,-3242.01 "/>
    </g>
    <g>
      <line style="fill: none; fill-opacity:0; stroke-width: 1.2; stroke: #000000" x1="174.477" y1="-3234.4" x2="148.802" y2="-3208.69"/>
      <polygon style="fill: #000000" points="146.682,-3206.56 148.093,-3210.81 148.802,-3208.69 150.923,-3207.98 "/>
      <polygon style="fill: none; fill-opacity:0; stroke-width: 1.2; stroke: #000000" points="146.682,-3206.56 148.093,-3210.81 148.802,-3208.69 150.923,-3207.98 "/>
    </g>
    <g>
      <line style="fill: none; fill-opacity:0; stroke-width: 1.2; stroke: #000000" x1="68.0127" y1="-3199.93" x2="87.722" y2="-3199.87"/>
      <polygon style="fill: #000000" points="90.722,-3199.87 86.7159,-3197.88 87.722,-3199.87 86.7282,-3201.88 "/>
      <polygon style="fill: none; fill-opacity:0; stroke-width: 1.2; stroke: #000000" points="90.722,-3199.87 86.7159,-3197.88 87.722,-3199.87 86.7282,-3201.88 "/>
    </g>
    <g>
      <line style="fill: none; fill-opacity:0; stroke-width: 1.2; stroke: #000000" x1="105.595" y1="-3285.68" x2="131.232" y2="-3311.28"/>
      <polygon style="fill: #000000" points="133.355,-3313.4 131.937,-3309.16 131.232,-3311.28 129.111,-3311.99 "/>
      <polygon style="fill: none; fill-opacity:0; stroke-width: 1.2; stroke: #000000" points="133.355,-3313.4 131.937,-3309.16 131.232,-3311.28 129.111,-3311.99 "/>
    </g>
    <g>
      <line style="fill: none; fill-opacity:0; stroke-width: 1.2; stroke: #000000" x1="148.318" y1="-3279.9" x2="167.673" y2="-3279.9"/>
      <polygon style="fill: #000000" points="170.673,-3279.9 166.673,-3277.9 167.673,-3279.9 166.673,-3281.9 "/>
      <polygon style="fill: none; fill-opacity:0; stroke-width: 1.2; stroke: #000000" points="170.673,-3279.9 166.673,-3277.9 167.673,-3279.9 166.673,-3281.9 "/>
    </g>
    <g>
      <line style="fill: none; fill-opacity:0; stroke-width: 1.2; stroke: #000000" x1="148.052" y1="-3199.93" x2="167.695" y2="-3199.87"/>
      <polygon style="fill: #000000" points="170.695,-3199.87 166.689,-3197.88 167.695,-3199.87 166.701,-3201.88 "/>
      <polygon style="fill: none; fill-opacity:0; stroke-width: 1.2; stroke: #000000" points="170.695,-3199.87 166.689,-3197.88 167.695,-3199.87 166.701,-3201.88 "/>
    </g>
    <text style="fill: #000000;text-anchor:start;font-size:12.8;font-family:CM Roman;font-style:normal;font-weight:normal" x="204.05" y="-3339.81">
      <tspan x="204.05" y="-3339.81">x</tspan>
    </text>
    <g>
      <ellipse style="fill: #ffffff" cx="60.0214" cy="-3320.01" rx="5" ry="5"/>
      <ellipse style="fill: none; fill-opacity:0; stroke-width: 2; stroke: #000000" cx="60.0214" cy="-3320.01" rx="5" ry="5"/>
    </g>
    <g>
      <ellipse style="fill: #ffffff" cx="99.9327" cy="-3320" rx="5" ry="5"/>
      <ellipse style="fill: none; fill-opacity:0; stroke-width: 2; stroke: #000000" cx="99.9327" cy="-3320" rx="5" ry="5"/>
    </g>
    <g>
      <ellipse style="fill: #ffffff" cx="139.966" cy="-3320" rx="5" ry="5"/>
      <ellipse style="fill: none; fill-opacity:0; stroke-width: 2; stroke: #000000" cx="139.966" cy="-3320" rx="5" ry="5"/>
    </g>
    <g>
      <ellipse style="fill: #ffffff" cx="180" cy="-3320" rx="5" ry="5"/>
      <ellipse style="fill: none; fill-opacity:0; stroke-width: 2; stroke: #000000" cx="180" cy="-3320" rx="5" ry="5"/>
    </g>
    <g>
      <ellipse style="fill: #ffffff" cx="59.899" cy="-3279.9" rx="5" ry="5"/>
      <ellipse style="fill: none; fill-opacity:0; stroke-width: 2; stroke: #000000" cx="59.899" cy="-3279.9" rx="5" ry="5"/>
    </g>
    <g>
      <ellipse style="fill: #ffffff" cx="99.9327" cy="-3280.03" rx="5" ry="5"/>
      <ellipse style="fill: none; fill-opacity:0; stroke-width: 2; stroke: #000000" cx="99.9327" cy="-3280.03" rx="5" ry="5"/>
    </g>
    <g>
      <ellipse style="fill: #ffffff" cx="140.333" cy="-3279.9" rx="5" ry="5"/>
      <ellipse style="fill: none; fill-opacity:0; stroke-width: 2; stroke: #000000" cx="140.333" cy="-3279.9" rx="5" ry="5"/>
    </g>
    <g>
      <ellipse style="fill: #ffffff" cx="180" cy="-3279.9" rx="5" ry="5"/>
      <ellipse style="fill: none; fill-opacity:0; stroke-width: 2; stroke: #000000" cx="180" cy="-3279.9" rx="5" ry="5"/>
    </g>
    <g>
      <ellipse style="fill: #ffffff" cx="60.0214" cy="-3239.93" rx="5" ry="5"/>
      <ellipse style="fill: none; fill-opacity:0; stroke-width: 2; stroke: #000000" cx="60.0214" cy="-3239.93" rx="5" ry="5"/>
    </g>
    <g>
      <ellipse style="fill: #ffffff" cx="99.9327" cy="-3239.93" rx="5" ry="5"/>
      <ellipse style="fill: none; fill-opacity:0; stroke-width: 2; stroke: #000000" cx="99.9327" cy="-3239.93" rx="5" ry="5"/>
    </g>
    <g>
      <ellipse style="fill: #ffffff" cx="140.089" cy="-3239.93" rx="5" ry="5"/>
      <ellipse style="fill: none; fill-opacity:0; stroke-width: 2; stroke: #000000" cx="140.089" cy="-3239.93" rx="5" ry="5"/>
    </g>
    <g>
      <ellipse style="fill: #ffffff" cx="180.122" cy="-3240.05" rx="5" ry="5"/>
      <ellipse style="fill: none; fill-opacity:0; stroke-width: 2; stroke: #000000" cx="180.122" cy="-3240.05" rx="5" ry="5"/>
    </g>
    <g>
      <ellipse style="fill: #ffffff" cx="60.0214" cy="-3199.96" rx="5" ry="5"/>
      <ellipse style="fill: none; fill-opacity:0; stroke-width: 2; stroke: #000000" cx="60.0214" cy="-3199.96" rx="5" ry="5"/>
    </g>
    <g>
      <ellipse style="fill: #ffffff" cx="100.055" cy="-3199.84" rx="5" ry="5"/>
      <ellipse style="fill: none; fill-opacity:0; stroke-width: 2; stroke: #000000" cx="100.055" cy="-3199.84" rx="5" ry="5"/>
    </g>
    <g>
      <ellipse style="fill: #ffffff" cx="140.089" cy="-3199.96" rx="5" ry="5"/>
      <ellipse style="fill: none; fill-opacity:0; stroke-width: 2; stroke: #000000" cx="140.089" cy="-3199.96" rx="5" ry="5"/>
    </g>
    <g>
      <ellipse style="fill: #ffffff" cx="180" cy="-3199.84" rx="5" ry="5"/>
      <ellipse style="fill: none; fill-opacity:0; stroke-width: 2; stroke: #000000" cx="180" cy="-3199.84" rx="5" ry="5"/>
    </g>
    <text style="fill: #000000;text-anchor:start;font-size:12.8;font-family:CM Roman;font-style:normal;font-weight:normal" x="52" y="-3347.81">
      <tspan x="52" y="-3347.81">00</tspan>
    </text>
    <text style="fill: #000000;text-anchor:start;font-size:12.8;font-family:CM Roman;font-style:normal;font-weight:normal" x="92" y="-3347.81">
      <tspan x="92" y="-3347.81">01</tspan>
    </text>
    <text style="fill: #000000;text-anchor:start;font-size:12.8;font-family:CM Roman;font-style:normal;font-weight:normal" x="132" y="-3347.81">
      <tspan x="132" y="-3347.81">10</tspan>
    </text>
    <text style="fill: #000000;text-anchor:start;font-size:12.8;font-family:CM Roman;font-style:normal;font-weight:normal" x="172" y="-3347.81">
      <tspan x="172" y="-3347.81">11</tspan>
    </text>
    <g>
      <polyline style="fill: none; fill-opacity:0; stroke-width: 2; stroke: #000000" points="194.764,-3340 40,-3340 40,-3185.24 "/>
      <polygon style="fill: #000000" points="197.764,-3340 193.764,-3338 194.764,-3340 193.764,-3342 "/>
      <polygon style="fill: none; fill-opacity:0; stroke-width: 2; stroke: #000000" points="197.764,-3340 193.764,-3338 194.764,-3340 193.764,-3342 "/>
      <polygon style="fill: #000000" points="40,-3182.24 38,-3186.24 40,-3185.24 42,-3186.24 "/>
      <polygon style="fill: none; fill-opacity:0; stroke-width: 2; stroke: #000000" points="40,-3182.24 38,-3186.24 40,-3185.24 42,-3186.24 "/>
    </g>
    <text style="fill: #000000;text-anchor:start;font-size:12.8;font-family:CM Roman;font-style:normal;font-weight:normal" x="20" y="-3316">
      <tspan x="20" y="-3316">00</tspan>
    </text>
    <text style="fill: #000000;text-anchor:start;font-size:12.8;font-family:CM Roman;font-style:normal;font-weight:normal" x="20" y="-3196">
      <tspan x="20" y="-3196">11</tspan>
    </text>
    <text style="fill: #000000;text-anchor:start;font-size:12.8;font-family:CM Roman;font-style:normal;font-weight:normal" x="20" y="-3276">
      <tspan x="20" y="-3276">01</tspan>
    </text>
    <text style="fill: #000000;text-anchor:start;font-size:12.8;font-family:CM Roman;font-style:normal;font-weight:normal" x="20" y="-3236">
      <tspan x="20" y="-3236">10</tspan>
    </text>
    <text style="fill: #000000;text-anchor:start;font-size:12.8;font-family:CM Roman;font-style:normal;font-weight:normal" x="36" y="-3172">
      <tspan x="36" y="-3172">y</tspan>
    </text>
  </g>
</svg>
