<?xml version="1.0" encoding="UTF-8" standalone="no"?>
<!DOCTYPE svg PUBLIC "-//W3C//DTD SVG 1.0//EN" "http://www.w3.org/TR/2001/PR-SVG-20010719/DTD/svg10.dtd">
<svg width="10cm" height="10cm" viewBox="40 -3361 191 192" xmlns="http://www.w3.org/2000/svg" xmlns:xlink="http://www.w3.org/1999/xlink">
  <g>
    <path style="fill: none; fill-opacity:0; stroke-width: 1.2; stroke: #000000" d="M 86.8932 -3276.02 C 122.893,-3256.02 139.471,-3277.8 154.574,-3308.9"/>
    <polygon style="fill: #000000" points="155.884,-3311.6 155.936,-3307.12 154.574,-3308.9 152.338,-3308.87 "/>
    <polygon style="fill: none; fill-opacity:0; stroke-width: 1.2; stroke: #000000" points="155.884,-3311.6 155.936,-3307.12 154.574,-3308.9 152.338,-3308.87 "/>
  </g>
  <g>
    <path style="fill: none; fill-opacity:0; stroke-width: 1.2; stroke: #000000" d="M 90.6885 -3246.13 C 129.935,-3268.95 148.38,-3232.48 157.38,-3207.48"/>
    <polygon style="fill: #000000" points="88.095,-3244.63 90.5478,-3248.37 90.6885,-3246.13 92.5583,-3244.91 "/>
    <polygon style="fill: none; fill-opacity:0; stroke-width: 1.2; stroke: #000000" points="88.095,-3244.63 90.5478,-3248.37 90.6885,-3246.13 92.5583,-3244.91 "/>
  </g>
  <g>
    <line style="fill: none; fill-opacity:0; stroke-width: 1.2; stroke: #000000" x1="87.9847" y1="-3320.01" x2="107.628" y2="-3320"/>
    <polygon style="fill: #000000" points="110.628,-3320 106.627,-3318 107.628,-3320 106.628,-3322 "/>
    <polygon style="fill: none; fill-opacity:0; stroke-width: 1.2; stroke: #000000" points="110.628,-3320 106.627,-3318 107.628,-3320 106.628,-3322 "/>
  </g>
  <g>
    <line style="fill: none; fill-opacity:0; stroke-width: 1.2; stroke: #000000" x1="119.933" y1="-3312.03" x2="119.933" y2="-3292.34"/>
    <polygon style="fill: #000000" points="119.933,-3289.34 117.933,-3293.34 119.933,-3292.34 121.933,-3293.34 "/>
    <polygon style="fill: none; fill-opacity:0; stroke-width: 1.2; stroke: #000000" points="119.933,-3289.34 117.933,-3293.34 119.933,-3292.34 121.933,-3293.34 "/>
  </g>
  <g>
    <line style="fill: none; fill-opacity:0; stroke-width: 1.2; stroke: #000000" x1="111.941" y1="-3280" x2="92.232" y2="-3279.94"/>
    <polygon style="fill: #000000" points="89.232,-3279.93 93.2259,-3281.95 92.232,-3279.94 93.2381,-3277.95 "/>
    <polygon style="fill: none; fill-opacity:0; stroke-width: 1.2; stroke: #000000" points="89.232,-3279.93 93.2259,-3281.95 92.232,-3279.94 93.2381,-3277.95 "/>
  </g>
  <g>
    <line style="fill: none; fill-opacity:0; stroke-width: 1.2; stroke: #000000" x1="167.958" y1="-3320" x2="187.667" y2="-3320"/>
    <polygon style="fill: #000000" points="190.667,-3320 186.667,-3318 187.667,-3320 186.667,-3322 "/>
    <polygon style="fill: none; fill-opacity:0; stroke-width: 1.2; stroke: #000000" points="190.667,-3320 186.667,-3318 187.667,-3320 186.667,-3322 "/>
  </g>
  <g>
    <line style="fill: none; fill-opacity:0; stroke-width: 1.2; stroke: #000000" x1="200" y1="-3312" x2="200" y2="-3292.25"/>
    <polygon style="fill: #000000" points="200,-3289.25 198,-3293.25 200,-3292.25 202,-3293.25 "/>
    <polygon style="fill: none; fill-opacity:0; stroke-width: 1.2; stroke: #000000" points="200,-3289.25 198,-3293.25 200,-3292.25 202,-3293.25 "/>
  </g>
  <g>
    <line style="fill: none; fill-opacity:0; stroke-width: 1.2; stroke: #000000" x1="192.015" y1="-3279.9" x2="172.66" y2="-3279.9"/>
    <polygon style="fill: #000000" points="169.66,-3279.9 173.66,-3281.9 172.66,-3279.9 173.66,-3277.9 "/>
    <polygon style="fill: none; fill-opacity:0; stroke-width: 1.2; stroke: #000000" points="169.66,-3279.9 173.66,-3281.9 172.66,-3279.9 173.66,-3277.9 "/>
  </g>
  <g>
    <line style="fill: none; fill-opacity:0; stroke-width: 1.2; stroke: #000000" x1="87.9847" y1="-3239.93" x2="107.628" y2="-3239.93"/>
    <polygon style="fill: #000000" points="110.628,-3239.93 106.628,-3237.93 107.628,-3239.93 106.628,-3241.93 "/>
    <polygon style="fill: none; fill-opacity:0; stroke-width: 1.2; stroke: #000000" points="110.628,-3239.93 106.628,-3237.93 107.628,-3239.93 106.628,-3241.93 "/>
  </g>
  <g>
    <line style="fill: none; fill-opacity:0; stroke-width: 1.2; stroke: #000000" x1="119.957" y1="-3231.93" x2="120.017" y2="-3212.18"/>
    <polygon style="fill: #000000" points="120.027,-3209.18 118.014,-3213.17 120.017,-3212.18 122.014,-3213.19 "/>
    <polygon style="fill: none; fill-opacity:0; stroke-width: 1.2; stroke: #000000" points="120.027,-3209.18 118.014,-3213.17 120.017,-3212.18 122.014,-3213.19 "/>
  </g>
  <g>
    <line style="fill: none; fill-opacity:0; stroke-width: 1.2; stroke: #000000" x1="112.059" y1="-3199.86" x2="91.363" y2="-3199.94"/>
    <polygon style="fill: #000000" points="88.363,-3199.95 92.3699,-3201.93 91.363,-3199.94 92.356,-3197.93 "/>
    <polygon style="fill: none; fill-opacity:0; stroke-width: 1.2; stroke: #000000" points="88.363,-3199.95 92.3699,-3201.93 91.363,-3199.94 92.356,-3197.93 "/>
  </g>
  <g>
    <line style="fill: none; fill-opacity:0; stroke-width: 1.2; stroke: #000000" x1="168.08" y1="-3239.96" x2="187.789" y2="-3240.02"/>
    <polygon style="fill: #000000" points="190.789,-3240.03 186.795,-3238.01 187.789,-3240.02 186.783,-3242.01 "/>
    <polygon style="fill: none; fill-opacity:0; stroke-width: 1.2; stroke: #000000" points="190.789,-3240.03 186.795,-3238.01 187.789,-3240.02 186.783,-3242.01 "/>
  </g>
  <g>
    <line style="fill: none; fill-opacity:0; stroke-width: 1.2; stroke: #000000" x1="200.098" y1="-3232.07" x2="200.038" y2="-3212.17"/>
    <polygon style="fill: #000000" points="200.028,-3209.17 198.041,-3213.17 200.038,-3212.17 202.041,-3213.16 "/>
    <polygon style="fill: none; fill-opacity:0; stroke-width: 1.2; stroke: #000000" points="200.028,-3209.17 198.041,-3213.17 200.038,-3212.17 202.041,-3213.16 "/>
  </g>
  <g>
    <line style="fill: none; fill-opacity:0; stroke-width: 1.2; stroke: #000000" x1="192.037" y1="-3199.86" x2="172.394" y2="-3199.92"/>
    <polygon style="fill: #000000" points="169.394,-3199.93 173.4,-3201.92 172.394,-3199.92 173.387,-3197.92 "/>
    <polygon style="fill: none; fill-opacity:0; stroke-width: 1.2; stroke: #000000" points="169.394,-3199.93 173.4,-3201.92 172.394,-3199.92 173.387,-3197.92 "/>
  </g>
  <g>
    <line style="fill: none; fill-opacity:0; stroke-width: 1.2; stroke: #000000" x1="160.285" y1="-3271.93" x2="160.164" y2="-3252.25"/>
    <polygon style="fill: #000000" points="160.146,-3249.25 158.17,-3253.26 160.164,-3252.25 162.17,-3253.23 "/>
    <polygon style="fill: none; fill-opacity:0; stroke-width: 1.2; stroke: #000000" points="160.146,-3249.25 158.17,-3253.26 160.164,-3252.25 162.17,-3253.23 "/>
  </g>
  <text style="fill: #000000;text-anchor:start;font-size:12.8;font-family:CM Roman;font-style:normal;font-weight:normal" x="224" y="-3339.81">
    <tspan x="224" y="-3339.81">x</tspan>
  </text>
  <text style="fill: #000000;text-anchor:start;font-size:12.8;font-family:CM Roman;font-style:normal;font-weight:normal" x="56" y="-3172">
    <tspan x="56" y="-3172">y</tspan>
  </text>
  <text style="fill: #000000;text-anchor:start;font-size:12.8;font-family:CM Roman;font-style:normal;font-weight:normal" x="72" y="-3348.05">
    <tspan x="72" y="-3348.05">00</tspan>
  </text>
  <text style="fill: #000000;text-anchor:start;font-size:12.8;font-family:CM Roman;font-style:normal;font-weight:normal" x="112" y="-3348.05">
    <tspan x="112" y="-3348.05">01</tspan>
  </text>
  <text style="fill: #000000;text-anchor:start;font-size:12.8;font-family:CM Roman;font-style:normal;font-weight:normal" x="152" y="-3348.05">
    <tspan x="152" y="-3348.05">10</tspan>
  </text>
  <text style="fill: #000000;text-anchor:start;font-size:12.8;font-family:CM Roman;font-style:normal;font-weight:normal" x="192" y="-3348.05">
    <tspan x="192" y="-3348.05">11</tspan>
  </text>
  <g>
    <polyline style="fill: none; fill-opacity:0; stroke-width: 2; stroke: #000000" points="214.764,-3340 60,-3340 60,-3185.24 "/>
    <polygon style="fill: #000000" points="217.764,-3340 213.764,-3338 214.764,-3340 213.764,-3342 "/>
    <polygon style="fill: none; fill-opacity:0; stroke-width: 2; stroke: #000000" points="217.764,-3340 213.764,-3338 214.764,-3340 213.764,-3342 "/>
    <polygon style="fill: #000000" points="60,-3182.24 58,-3186.24 60,-3185.24 62,-3186.24 "/>
    <polygon style="fill: none; fill-opacity:0; stroke-width: 2; stroke: #000000" points="60,-3182.24 58,-3186.24 60,-3185.24 62,-3186.24 "/>
  </g>
  <text style="fill: #000000;text-anchor:start;font-size:12.8;font-family:CM Roman;font-style:normal;font-weight:normal" x="40" y="-3316">
    <tspan x="40" y="-3316">00</tspan>
  </text>
  <text style="fill: #000000;text-anchor:start;font-size:12.8;font-family:CM Roman;font-style:normal;font-weight:normal" x="40" y="-3196">
    <tspan x="40" y="-3196">11</tspan>
  </text>
  <text style="fill: #000000;text-anchor:start;font-size:12.8;font-family:CM Roman;font-style:normal;font-weight:normal" x="40" y="-3276">
    <tspan x="40" y="-3276">01</tspan>
  </text>
  <text style="fill: #000000;text-anchor:start;font-size:12.8;font-family:CM Roman;font-style:normal;font-weight:normal" x="40" y="-3236">
    <tspan x="40" y="-3236">10</tspan>
  </text>
  <g>
    <ellipse style="fill: #ffffff" cx="80.0214" cy="-3320.01" rx="5" ry="5"/>
    <ellipse style="fill: none; fill-opacity:0; stroke-width: 2; stroke: #000000" cx="80.0214" cy="-3320.01" rx="5" ry="5"/>
  </g>
  <g>
    <ellipse style="fill: #ffffff" cx="119.933" cy="-3320" rx="5" ry="5"/>
    <ellipse style="fill: none; fill-opacity:0; stroke-width: 2; stroke: #000000" cx="119.933" cy="-3320" rx="5" ry="5"/>
  </g>
  <g>
    <ellipse style="fill: #ffffff" cx="159.966" cy="-3320" rx="5" ry="5"/>
    <ellipse style="fill: none; fill-opacity:0; stroke-width: 2; stroke: #000000" cx="159.966" cy="-3320" rx="5" ry="5"/>
  </g>
  <g>
    <ellipse style="fill: #ffffff" cx="200" cy="-3320" rx="5" ry="5"/>
    <ellipse style="fill: none; fill-opacity:0; stroke-width: 2; stroke: #000000" cx="200" cy="-3320" rx="5" ry="5"/>
  </g>
  <g>
    <ellipse style="fill: #ffffff" cx="79.899" cy="-3279.9" rx="5" ry="5"/>
    <ellipse style="fill: none; fill-opacity:0; stroke-width: 2; stroke: #000000" cx="79.899" cy="-3279.9" rx="5" ry="5"/>
  </g>
  <g>
    <ellipse style="fill: #ffffff" cx="119.933" cy="-3280.03" rx="5" ry="5"/>
    <ellipse style="fill: none; fill-opacity:0; stroke-width: 2; stroke: #000000" cx="119.933" cy="-3280.03" rx="5" ry="5"/>
  </g>
  <g>
    <ellipse style="fill: #ffffff" cx="160.333" cy="-3279.96" rx="5" ry="5"/>
    <ellipse style="fill: none; fill-opacity:0; stroke-width: 2; stroke: #000000" cx="160.333" cy="-3279.96" rx="5" ry="5"/>
  </g>
  <g>
    <ellipse style="fill: #ffffff" cx="200" cy="-3279.9" rx="5" ry="5"/>
    <ellipse style="fill: none; fill-opacity:0; stroke-width: 2; stroke: #000000" cx="200" cy="-3279.9" rx="5" ry="5"/>
  </g>
  <g>
    <ellipse style="fill: #ffffff" cx="80.0214" cy="-3239.93" rx="5" ry="5"/>
    <ellipse style="fill: none; fill-opacity:0; stroke-width: 2; stroke: #000000" cx="80.0214" cy="-3239.93" rx="5" ry="5"/>
  </g>
  <g>
    <ellipse style="fill: #ffffff" cx="119.933" cy="-3239.93" rx="5" ry="5"/>
    <ellipse style="fill: none; fill-opacity:0; stroke-width: 2; stroke: #000000" cx="119.933" cy="-3239.93" rx="5" ry="5"/>
  </g>
  <g>
    <ellipse style="fill: #ffffff" cx="160.089" cy="-3239.93" rx="5" ry="5"/>
    <ellipse style="fill: none; fill-opacity:0; stroke-width: 2; stroke: #000000" cx="160.089" cy="-3239.93" rx="5" ry="5"/>
  </g>
  <g>
    <ellipse style="fill: #ffffff" cx="200.122" cy="-3240.05" rx="5" ry="5"/>
    <ellipse style="fill: none; fill-opacity:0; stroke-width: 2; stroke: #000000" cx="200.122" cy="-3240.05" rx="5" ry="5"/>
  </g>
  <g>
    <ellipse style="fill: #ffffff" cx="80.0214" cy="-3199.96" rx="5" ry="5"/>
    <ellipse style="fill: none; fill-opacity:0; stroke-width: 2; stroke: #000000" cx="80.0214" cy="-3199.96" rx="5" ry="5"/>
  </g>
  <g>
    <ellipse style="fill: #ffffff" cx="120.055" cy="-3199.84" rx="5" ry="5"/>
    <ellipse style="fill: none; fill-opacity:0; stroke-width: 2; stroke: #000000" cx="120.055" cy="-3199.84" rx="5" ry="5"/>
  </g>
  <g>
    <ellipse style="fill: #ffffff" cx="160.089" cy="-3199.96" rx="5" ry="5"/>
    <ellipse style="fill: none; fill-opacity:0; stroke-width: 2; stroke: #000000" cx="160.089" cy="-3199.96" rx="5" ry="5"/>
  </g>
  <g>
    <ellipse style="fill: #ffffff" cx="200" cy="-3199.84" rx="5" ry="5"/>
    <ellipse style="fill: none; fill-opacity:0; stroke-width: 2; stroke: #000000" cx="200" cy="-3199.84" rx="5" ry="5"/>
  </g>
</svg>
